<?xml version="1.0" encoding="utf-8"?>
<svg xmlns="http://www.w3.org/2000/svg"
	xmlns:xlink="http://www.w3.org/1999/xlink"
	width="31px" height="31px" viewBox="0 0 31 31">
<path fillRule="evenodd" d="M 15.5 31C 6.96 31 0 24.05 0 15.5 0 6.95 6.96 0 15.5 0 24.05 0 31.01 6.95 31.01 15.5 31.01 24.05 24.05 31 15.5 31ZM 15.5 1.42C 7.74 1.42 1.43 7.74 1.43 15.5 1.43 23.26 7.74 29.58 15.5 29.58 23.27 29.58 29.59 23.26 29.59 15.5 29.59 7.74 23.27 1.42 15.5 1.42ZM 9.24 25.64C 9.24 25.64 15.3 15.44 15.3 15.44 15.3 15.44 9.24 5.56 9.24 5.56 9.24 5.56 26.63 15.6 26.63 15.6 26.63 15.6 9.24 25.64 9.24 25.64Z" fill="rgb(251,99,93)"/></svg>