<?xml version="1.0" encoding="utf-8"?>
<svg xmlns="http://www.w3.org/2000/svg"
	xmlns:xlink="http://www.w3.org/1999/xlink"
	width="31px" height="31px" viewBox="0 0 31 31">
<path fillRule="evenodd" d="M 15.5 31C 24.04 31 31 24.05 31 15.5 31 6.95 24.04 0 15.5 0 6.95 0-0.01 6.95-0.01 15.5-0.01 24.05 6.95 31 15.5 31ZM 15.5 1.42C 23.26 1.42 29.57 7.74 29.57 15.5 29.57 23.26 23.26 29.58 15.5 29.58 7.73 29.58 1.41 23.26 1.41 15.5 1.41 7.74 7.73 1.42 15.5 1.42ZM 21.76 25.64C 21.76 25.64 15.7 15.44 15.7 15.44 15.7 15.44 21.76 5.56 21.76 5.56 21.76 5.56 4.37 15.6 4.37 15.6 4.37 15.6 21.76 25.64 21.76 25.64Z" fill="rgb(251,99,93)"/></svg>