<?xml version="1.0" encoding="utf-8"?>
<svg xmlns="http://www.w3.org/2000/svg"
	xmlns:xlink="http://www.w3.org/1999/xlink"
	width="37px" height="37px" viewBox="0 0 37 37">
<path fillRule="evenodd" d="M 18.5-0C 8.28-0-0 8.29-0 18.51-0 28.73 8.28 37.01 18.5 37.01 28.71 37.01 36.99 28.73 36.99 18.51 36.99 8.28 28.71-0 18.5-0ZM 23.28 18.5C 23.28 18.5 20.25 18.51 20.25 18.51 20.25 18.51 20.24 29.61 20.24 29.61 20.24 29.61 16.08 29.61 16.08 29.61 16.08 29.61 16.08 18.51 16.08 18.51 16.08 18.51 13.31 18.51 13.31 18.51 13.31 18.51 13.31 14.68 13.31 14.68 13.31 14.68 16.08 14.68 16.08 14.68 16.08 14.68 16.08 12.42 16.08 12.42 16.08 9.3 16.93 7.4 20.6 7.4 20.6 7.4 23.66 7.4 23.66 7.4 23.66 7.4 23.66 11.23 23.66 11.23 23.66 11.23 21.75 11.23 21.75 11.23 20.32 11.23 20.25 11.77 20.25 12.76 20.25 12.76 20.24 14.68 20.24 14.68 20.24 14.68 23.68 14.68 23.68 14.68 23.68 14.68 23.28 18.5 23.28 18.5Z" fill="rgb(85,85,85)"/></svg>