<?xml version="1.0" encoding="utf-8"?>
<svg xmlns="http://www.w3.org/2000/svg"
	xmlns:xlink="http://www.w3.org/1999/xlink"
	width="37px" height="38px" viewBox="0 0 37 38">
<path fillRule="evenodd" d="M 34.62 20.16C 34.62 20.16 34.64 31.71 34.64 31.71 34.72 33.13 33.61 31.77 33.61 31.77 33.61 31.77 28.83 22.93 14.86 22.95 14.86 22.95 13.54 22.96 13.54 21.7 13.54 21.7 13.52 10.77 13.52 10.77 13.52 10.77 13.28 9.51 14.76 9.5 14.76 9.5 27.26 10.24 33.3 0.81 33.3 0.81 34.58-0.87 34.58 0.64 34.58 0.64 34.6 12.21 34.6 12.21 36.02 12.97 37 14.45 37 16.18 37.01 17.91 36.03 19.39 34.62 20.16ZM 20.84 10.66C 31.5 10.55 33.04 3.33 33.04 3.33 29.06 9.51 20.84 10.66 20.84 10.66ZM 34.97 13.18C 36.55 15.5 36.13 17.47 36.13 17.47 37.1 14.42 34.97 13.18 34.97 13.18ZM 12.11 23.83C 12.11 24.89 10.77 26.75 10.77 26.75 9.78 29.71 12.27 30.76 10.53 32.57 12.84 37.33 8.19 38 8.19 38 6.59 38 6.84 36.41 6.84 36.41 6.84 36.41 6.83 26.49 6.83 26.49 6.96 23.98 5.39 23.92 5.39 23.92 1.6 23.93 1.44 19.87 1.44 19.38 0.57 18.79-0 17.79-0 16.66-0 15.53 0.57 14.54 1.43 13.95 1.43 13.95 1.43 13.84 1.43 13.84 1.42 9.85 5.54 9.67 5.54 9.67 5.54 9.67 10.74 9.66 10.74 9.66 12.43 9.65 12.17 11.16 12.17 11.16 12.17 11.16 12.11 23.83 12.11 23.83Z" fill="rgb(255,255,255)"/></svg>