<?xml version="1.0" encoding="utf-8"?>
<svg xmlns="http://www.w3.org/2000/svg"
	xmlns:xlink="http://www.w3.org/1999/xlink"
	width="23px" height="21px" viewBox="0 0 23 21">
<path fillRule="evenodd" d="M 22.94 8.94C 22.94 8.94 21.21 18.16 21.21 18.16 21.17 18.39 21.14 18.76 21.09 18.99 20.85 20.13 19.67 21 18.51 21 18.51 21 10.33 21 10.33 21 9.86 21 9.42 20.85 9.05 20.6 8.86 20.47 8.58 20.25 8.39 20.12 7.68 19.68 6.88 19.17 5.65 19.07 5.42 19.05 5.08 18.96 4.89 18.85 4.89 18.85 3.72 18.17 3.72 18.17 3.52 18.06 3.36 17.77 3.36 17.54 3.36 17.54 3.36 9.27 3.36 9.27 3.36 9.04 3.53 8.79 3.74 8.71 3.74 8.71 6.47 7.7 6.47 7.7 6.68 7.62 7.01 7.47 7.21 7.36 8.17 6.81 10.86 5.18 12.25 3.14 13.33 1.58 14.39-0 15.12-0 15.56 0 15.88 0.58 16.01 2.09 16.17 3.91 15.87 4.97 15.35 5.77 15.22 5.96 15.28 6.1 15.51 6.1 15.51 6.1 20.67 6.1 20.67 6.1 21.83 6.1 22.79 6.97 22.98 8.11 23.02 8.34 22.98 8.71 22.94 8.94ZM 2.17 18.97C 2.17 18.97 0.68 18.97 0.68 18.97 0.3 18.97-0 18.65-0 18.27-0 18.27-0 8.61-0 8.61-0 8.22 0.3 7.91 0.68 7.91 0.68 7.91 2.17 7.91 2.17 7.91 2.54 7.91 2.84 8.22 2.84 8.61 2.84 8.61 2.84 18.27 2.84 18.27 2.84 18.65 2.54 18.97 2.17 18.97Z" fill="rgb(255,255,255)"/></svg>