<?xml version="1.0" encoding="utf-8"?>
<svg xmlns="http://www.w3.org/2000/svg"
	xmlns:xlink="http://www.w3.org/1999/xlink"
	width="41px" height="38px" viewBox="0 0 41 38">
<path fillRule="evenodd" d="M 39.17 32.39C 39.17 32.39 2.28 32.39 2.28 32.39 1.4 32.39 0.68 31.67 0.68 30.79 0.68 30.79 0.68 7.53 0.68 7.53 0.68 6.64 1.4 5.92 2.28 5.92 2.28 5.92 25.3 5.92 25.3 5.92 25.3 5.92 23.61 8.33 23.61 8.33 23.61 8.33 3.08 8.33 3.08 8.33 3.08 8.33 3.08 27.58 3.08 27.58 3.08 27.58 38.37 27.58 38.37 27.58 38.37 27.58 38.37 8.33 38.37 8.33 38.37 8.33 31.95 8.33 31.95 8.33 31.95 8.33 34.16 5.92 34.16 5.92 34.16 5.92 39.17 5.92 39.17 5.92 40.05 5.92 40.77 6.64 40.77 7.53 40.77 7.53 40.77 30.79 40.77 30.79 40.77 31.67 40.05 32.39 39.17 32.39ZM 18.21 23.31C 14.48 24.85 9.15 23.65 11.37 23.63 13.59 23.61 13.86 23.08 14.59 20.85 15.92 17.33 21.93 21.77 18.21 23.31ZM 20.65 19.12C 19.53 20.51 19.79 20.45 18.71 19.58 17.63 18.72 17.63 18.98 18.75 17.59 18.75 17.59 30.14 1.41 30.14 1.41 31.26 0.01 33.04-0.41 34.12 0.45 35.2 1.32 35.16 3.16 34.03 4.55 34.03 4.55 20.65 19.12 20.65 19.12ZM 30.47 1.75C 31.03 2.2 31.19 2.39 31.19 2.39 31.19 2.39 31.39 1.56 32.94 0.64 32.94 0.64 31.3 0.4 30.47 1.75ZM 15.54 36.94C 16.24 36.43 16.31 35.66 16.31 35.66 16.31 35.66 16.57 34 16.57 34 16.57 34 24.88 34 24.88 34 24.88 34 25.14 35.66 25.14 35.66 25.14 35.66 25.21 36.43 25.91 36.94 26.6 37.45 27.15 37.89 26.6 37.97 26.07 38.04 21.09 37.97 20.72 37.97 20.36 37.97 15.38 38.04 14.85 37.97 14.3 37.89 14.85 37.45 15.54 36.94Z" fill="rgb(251,99,93)"/></svg>