<?xml version="1.0" encoding="utf-8"?>
<svg xmlns="http://www.w3.org/2000/svg"
	xmlns:xlink="http://www.w3.org/1999/xlink"
	width="22px" height="25px" viewBox="0 0 22 25">
<path fillRule="evenodd" d="M 21.88 15.24C 21.18 16.01 20 16.04 20 16.04 20 16.04 20.77 17.5 20.42 17.91 20.07 18.31 19.11 18.14 19.11 18.14 19.11 18.14 20.01 18.78 20.01 19.28 20.01 19.78 18.49 20.45 18.49 20.45 18.49 20.45 18.77 23.22 16.49 23.03 14.22 22.84 13.83 22.2 13.83 22.2 13.83 22.2 13.16 25 13.16 25 13.16 25 4.35 25 4.35 25 4.35 25 4.66 18.91 4.66 18.91 4.66 18.91-0.75 13.05 0.1 7.81 0.53 5.72 0.26 1.34 7.52 0.18 14.78-0.98 21.32 2.7 19.68 10.73 19.68 12.2 22.58 14.47 21.88 15.24ZM 13.27 7.86C 13.27 7.86 12.6 7.47 12.26 7.27 12.25 7.08 12.23 6.89 12.19 6.7 12.46 6.47 12.99 6.01 12.99 6.01 12.99 6.01 12.99 5.09 12.99 5.09 12.99 5.09 11.67 3.55 11.67 3.55 11.67 3.55 10.75 3.55 10.75 3.55 10.75 3.55 10.31 3.93 10.09 4.11 9.85 4 9.6 3.91 9.33 3.83 9.31 3.57 9.27 3.05 9.27 3.05 9.27 3.05 8.62 2.4 8.62 2.4 8.62 2.4 6.59 2.56 6.59 2.56 6.59 2.56 5.94 3.22 5.94 3.22 5.94 3.22 5.99 3.9 6.02 4.24 5.82 4.36 5.64 4.48 5.46 4.62 5.18 4.49 4.61 4.23 4.61 4.23 4.61 4.23 3.71 4.47 3.71 4.47 3.71 4.47 2.87 6.31 2.87 6.31 2.87 6.31 2.84 6.44 2.84 6.44 2.84 6.44 3.1 7.21 3.1 7.21 3.1 7.21 3.76 7.51 4.09 7.66 4.11 7.87 4.14 8.09 4.19 8.29 3.94 8.51 3.44 8.93 3.44 8.93 3.44 8.93 3.44 9.85 3.44 9.85 3.44 9.85 4.75 11.4 4.75 11.4 4.75 11.4 5.51 11.49 5.55 11.47 5.59 11.45 5.68 11.4 5.68 11.4 5.68 11.4 6.15 11 6.4 10.79 6.6 10.88 6.81 10.96 7.03 11.02 7.05 11.29 7.1 11.83 7.1 11.83 7.1 11.83 7.76 12.48 7.76 12.48 7.76 12.48 9.78 12.3 9.78 12.3 9.78 12.3 10.43 11.65 10.43 11.65 10.43 11.65 10.37 10.95 10.34 10.6 10.5 10.5 10.66 10.4 10.81 10.29 11.07 10.44 11.6 10.74 11.6 10.74 11.6 10.74 12.49 10.5 12.49 10.5 12.49 10.5 13.51 8.75 13.51 8.75 13.51 8.75 13.27 7.86 13.27 7.86ZM 15.84 15.29C 15.84 15.29 15.41 15.04 15.19 14.92 15.19 14.79 15.17 14.67 15.15 14.55 15.32 14.4 15.66 14.11 15.66 14.11 15.66 14.11 15.66 13.52 15.66 13.52 15.66 13.52 14.82 12.53 14.82 12.53 14.82 12.53 14.22 12.53 14.22 12.53 14.22 12.53 13.94 12.77 13.8 12.89 13.65 12.82 13.49 12.76 13.32 12.71 13.3 12.54 13.28 12.21 13.28 12.21 13.28 12.21 12.86 11.79 12.86 11.79 12.86 11.79 11.56 11.89 11.56 11.89 11.56 11.89 11.14 12.31 11.14 12.31 11.14 12.31 11.17 12.75 11.19 12.97 11.07 13.05 10.94 13.13 10.83 13.22 10.65 13.13 10.29 12.97 10.29 12.97 10.29 12.97 9.71 13.12 9.71 13.12 9.71 13.12 9.17 14.3 9.17 14.3 9.17 14.3 9.15 14.38 9.15 14.38 9.15 14.38 9.32 14.87 9.32 14.87 9.32 14.87 9.74 15.07 9.95 15.16 9.96 15.3 9.98 15.44 10.02 15.57 9.86 15.71 9.53 15.98 9.53 15.98 9.53 15.98 9.53 16.57 9.53 16.57 9.53 16.57 10.38 17.57 10.38 17.57 10.38 17.57 10.87 17.62 10.89 17.61 10.92 17.59 10.97 17.57 10.97 17.57 10.97 17.57 11.28 17.31 11.43 17.17 11.56 17.23 11.7 17.28 11.84 17.32 11.85 17.49 11.88 17.84 11.88 17.84 11.88 17.84 12.3 18.26 12.3 18.26 12.3 18.26 13.6 18.14 13.6 18.14 13.6 18.14 14.02 17.72 14.02 17.72 14.02 17.72 13.98 17.28 13.96 17.05 14.06 16.99 14.17 16.93 14.26 16.85 14.43 16.95 14.77 17.14 14.77 17.14 14.77 17.14 15.34 16.99 15.34 16.99 15.34 16.99 15.99 15.87 15.99 15.87 15.99 15.87 15.84 15.29 15.84 15.29ZM 12.5 16.33C 11.78 16.33 11.19 15.75 11.19 15.03 11.19 14.31 11.78 13.72 12.5 13.72 13.22 13.72 13.81 14.31 13.81 15.03 13.81 15.75 13.22 16.33 12.5 16.33ZM 8.06 9.48C 6.94 9.48 6.02 8.57 6.02 7.44 6.02 6.32 6.94 5.41 8.06 5.41 9.19 5.41 10.1 6.32 10.1 7.44 10.1 8.57 9.19 9.48 8.06 9.48Z" fill="rgb(255,255,255)"/></svg>