<?xml version="1.0" encoding="utf-8"?>
<svg xmlns="http://www.w3.org/2000/svg"
	xmlns:xlink="http://www.w3.org/1999/xlink"
	width="23px" height="21px" viewBox="0 0 23 21">
<path fillRule="evenodd" d="M 21.61 17.6C 21.61 17.6 1.39 17.6 1.39 17.6 0.62 17.6-0.01 16.95-0.01 16.17-0.01 16.17-0.01 1.42-0.01 1.42-0.01 0.64 0.62 0 1.39 0 1.39 0 21.61 0 21.61 0 22.38 0 23.01 0.64 23.01 1.42 23.01 1.42 23.01 16.17 23.01 16.17 23.01 16.95 22.38 17.6 21.61 17.6ZM 21.26 2C 21.26 2 1.74 2 1.74 2 1.74 2 1.74 15.13 1.74 15.13 1.74 15.13 21.26 15.13 21.26 15.13 21.26 15.13 21.26 2 21.26 2ZM 4.72 10.59C 4.92 10.59 5.09 10.67 5.24 10.77 5.24 10.77 9.55 7.38 9.55 7.38 9.51 7.27 9.48 7.17 9.48 7.05 9.48 6.52 9.9 6.1 10.42 6.1 10.94 6.1 11.36 6.52 11.36 7.05 11.36 7.17 11.33 7.27 11.29 7.38 12.01 8 13 8.85 13.63 9.39 13.79 9.26 13.98 9.17 14.2 9.17 14.39 9.17 14.55 9.24 14.7 9.34 15.35 8.74 16.39 7.78 17.07 7.16 17.03 7.05 17 6.93 17 6.81 17 6.28 17.42 5.85 17.94 5.85 18.46 5.85 18.88 6.28 18.88 6.81 18.88 7.33 18.46 7.76 17.94 7.76 17.78 7.76 17.64 7.71 17.51 7.64 17.51 7.64 15.09 9.86 15.09 9.86 15.11 9.94 15.14 10.03 15.14 10.12 15.14 10.65 14.72 11.07 14.2 11.07 13.68 11.07 13.26 10.65 13.26 10.12 13.26 10.06 13.28 10.02 13.29 9.96 12.54 9.31 11.49 8.4 10.87 7.87 10.73 7.95 10.59 8 10.42 8 10.22 8 10.04 7.92 9.89 7.81 8.92 8.57 6.81 10.3 5.61 11.28 5.63 11.36 5.66 11.45 5.66 11.55 5.66 12.07 5.24 12.5 4.72 12.5 4.21 12.5 3.79 12.07 3.79 11.55 3.79 11.02 4.21 10.59 4.72 10.59ZM 14.13 18.27C 14.13 18.27 16.78 21 16.78 21 16.78 21 6.26 21 6.26 21 6.26 21 8.91 18.27 8.91 18.27 8.91 18.27 14.13 18.27 14.13 18.27Z" fill="rgb(255,255,255)"/></svg>