<?xml version="1.0" encoding="utf-8"?>
<svg xmlns="http://www.w3.org/2000/svg"
	xmlns:xlink="http://www.w3.org/1999/xlink"
	width="19px" height="25px" viewBox="0 0 19 25">
<path fillRule="evenodd" d="M 15.83 9.37C 15.83 12.5 12.67 15.58 12.67 18.75 12.67 18.75 6.33 18.75 6.33 18.75 6.33 15.67 3.17 12.5 3.17 9.37 3.17 5.92 6 3.12 9.5 3.12 13 3.12 15.83 5.92 15.83 9.37ZM 11.87 21.87C 11.87 21.87 7.12 21.87 7.12 21.87 6.69 21.87 6.33 22.22 6.33 22.66 6.33 23.09 6.69 23.44 7.12 23.44 7.12 23.44 7.27 23.44 7.27 23.44 7.6 24.35 8.47 25 9.5 25 10.53 25 11.4 24.35 11.73 23.44 11.73 23.44 11.87 23.44 11.87 23.44 12.31 23.44 12.67 23.09 12.67 22.66 12.67 22.22 12.31 21.87 11.87 21.87ZM 11.87 19.53C 11.87 19.53 7.12 19.53 7.12 19.53 6.69 19.53 6.33 19.88 6.33 20.31 6.33 20.74 6.69 21.09 7.12 21.09 7.12 21.09 11.87 21.09 11.87 21.09 12.31 21.09 12.67 20.74 12.67 20.31 12.67 19.88 12.31 19.53 11.87 19.53ZM 0.88 5.36C 0.88 5.36 2.3 6.17 2.3 6.17 2.52 5.69 2.78 5.25 3.09 4.82 3.09 4.82 1.67 4.01 1.67 4.01 1.67 4.01 0.88 5.36 0.88 5.36ZM 10.29 1.64C 10.29 1.64 10.29-0 10.29-0 10.29-0 8.71-0 8.71-0 8.71-0 8.71 1.64 8.71 1.64 8.97 1.61 9.23 1.56 9.5 1.56 9.77 1.56 10.03 1.61 10.29 1.64ZM 6.26 2.27C 6.26 2.27 5.44 0.86 5.44 0.86 5.44 0.86 4.06 1.65 4.06 1.65 4.06 1.65 4.89 3.05 4.89 3.05 5.32 2.75 5.77 2.48 6.26 2.27ZM 18.12 5.36C 18.12 5.36 17.33 4.01 17.33 4.01 17.33 4.01 15.91 4.82 15.91 4.82 16.22 5.25 16.48 5.69 16.7 6.17 16.7 6.17 18.12 5.36 18.12 5.36ZM 14.93 1.65C 14.93 1.65 13.56 0.86 13.56 0.86 13.56 0.86 12.75 2.27 12.75 2.27 13.23 2.48 13.69 2.75 14.11 3.05 14.11 3.05 14.93 1.65 14.93 1.65ZM 1.58 9.37C 1.58 9.11 1.64 8.85 1.66 8.59 1.66 8.59-0 8.59-0 8.59-0 8.59-0 10.16-0 10.16-0 10.16 1.67 10.16 1.67 10.16 1.64 9.9 1.58 9.64 1.58 9.37ZM 17.34 8.59C 17.36 8.85 17.42 9.11 17.42 9.37 17.42 9.64 17.36 9.9 17.33 10.16 17.33 10.16 19 10.16 19 10.16 19 10.16 19 8.59 19 8.59 19 8.59 17.34 8.59 17.34 8.59ZM 16.04 14C 16.04 14 17.33 14.74 17.33 14.74 17.33 14.74 18.12 13.38 18.12 13.38 18.12 13.38 16.69 12.57 16.69 12.57 16.49 13.05 16.27 13.53 16.04 14ZM 0.88 13.38C 0.88 13.38 1.67 14.74 1.67 14.74 1.67 14.74 2.95 14.01 2.95 14.01 2.72 13.53 2.5 13.06 2.31 12.57 2.31 12.57 0.88 13.38 0.88 13.38Z" fill="rgb(255,255,255)"/></svg>