<?xml version="1.0" encoding="utf-8"?>
<svg xmlns="http://www.w3.org/2000/svg"
	xmlns:xlink="http://www.w3.org/1999/xlink"
	width="34px" height="39px" viewBox="0 0 34 39">
<path fillRule="evenodd" d="M 33.24 0.9C 33.33 0.97 33.24 1.25 33.02 1.52 33 1.56 32.97 1.59 32.94 1.62 32.89 1.68 32.96 2.45 33 3.36 33.05 4.49 33.01 5.92 32.74 7.57 32.72 7.73 32.69 7.88 32.67 8.03 32.64 8.15 32.63 8.26 32.6 8.38 32.49 8.93 32.38 9.43 32.27 9.84 32.05 10.64 31.58 11.97 31.23 12.81 30.2 15.28 28.63 17.98 26.26 20.77 25.66 21.47 25.37 22.72 25.53 23.61 26.08 26.66 26.47 33.3 20.54 36.82 19.74 37.29 19.16 36.84 19.18 35.93 19.24 31.93 17.75 21.98 1.43 22.28 0.51 22.29-0.05 21.63 0.31 20.79 1.46 18.13 4.63 13.02 12.05 13.27 12.97 13.3 14.05 12.75 14.54 11.98 15.83 9.96 18.62 6.22 23.02 3.54 25.74 1.85 28.24 1.13 29.8 0.82 30.71 0.64 31.48 0.56 31.51 0.51 31.53 0.49 31.55 0.46 31.57 0.43 31.79 0.16 32.04 0 32.14 0.07 32.14 0.07 32.21 0.12 32.21 0.12 32.25 0.15 32.52 0.1 32.81 0.01 33.11-0.08 33.3 0.06 33.23 0.33 33.17 0.6 33.15 0.83 33.18 0.86 33.21 0.88 33.24 0.9 33.24 0.9ZM 23.57 11.43C 22.19 10.65 20.49 10.94 19.48 12.03 19.34 12.18 19.22 12.35 19.11 12.54 18.21 14.05 18.76 15.99 20.34 16.88 21.71 17.66 23.41 17.38 24.42 16.28 24.56 16.13 24.69 15.96 24.8 15.78 25.69 14.27 25.14 12.32 23.57 11.43ZM 7.7 25.33C 8.47 24.85 8.96 25.26 8.61 26.1 7.81 28.01 6.12 31.19 3.19 32.92 2.4 33.39 1.88 32.92 2.23 32.08 2.99 30.26 4.63 27.25 7.7 25.33ZM 11.13 27.96C 11.92 27.5 12.4 27.91 12.08 28.76 11.11 31.33 8.71 36.43 4.24 38.85 3.43 39.29 2.91 38.82 3.22 37.97 4.14 35.51 6.43 30.73 11.13 27.96ZM 14.57 30.62C 15.35 30.14 15.83 30.55 15.48 31.39 14.69 33.3 12.99 36.49 10.06 38.22 9.27 38.69 8.75 38.21 9.1 37.37 9.86 35.55 11.5 32.54 14.57 30.62Z" fill="rgb(255,255,255)"/></svg>