<?xml version="1.0" encoding="utf-8"?>
<svg xmlns="http://www.w3.org/2000/svg"
	xmlns:xlink="http://www.w3.org/1999/xlink"
	width="37px" height="37px" viewBox="0 0 37 37">
<path fillRule="evenodd" d="M 33.11 37C 33.11 37 3.9 37 3.9 37 1.75 37-0 35.24-0 33.11-0 33.11-0 3.89-0 3.89-0 1.75 1.75-0 3.9-0 3.9-0 33.11-0 33.11-0 35.25-0 37 1.75 37 3.89 37 3.89 37 33.11 37 33.11 37 35.24 35.25 37 33.11 37ZM 32.77 5.27C 32.77 5.27 4.22 5.27 4.22 5.27 4.22 5.27 4.22 24.75 4.22 24.75 4.22 24.75 32.77 24.75 32.77 24.75 32.77 24.75 32.77 5.27 32.77 5.27ZM 34.33 30.22C 34.33 30.22 14.39 30.22 14.39 30.22 14.05 28.75 12.73 27.65 11.16 27.65 9.58 27.65 8.27 28.75 7.92 30.22 7.92 30.22 2.68 30.22 2.68 30.22 2.68 30.22 2.68 31.76 2.68 31.76 2.68 31.76 7.92 31.76 7.92 31.76 8.27 33.23 9.58 34.32 11.16 34.32 12.73 34.32 14.04 33.23 14.39 31.76 14.39 31.76 34.33 31.76 34.33 31.76 34.33 31.76 34.33 30.22 34.33 30.22ZM 14.9 21.45C 14.9 21.45 10.92 21.45 10.92 21.45 10.92 21.45 10.92 13.23 10.92 13.23 10.92 13.23 14.9 13.23 14.9 13.23 14.9 13.23 14.9 21.45 14.9 21.45ZM 20.4 21.45C 20.4 21.45 16.41 21.45 16.41 21.45 16.41 21.45 16.41 11.05 16.41 11.05 16.41 11.05 20.4 11.05 20.4 11.05 20.4 11.05 20.4 21.45 20.4 21.45ZM 25.89 21.45C 25.89 21.45 21.91 21.45 21.91 21.45 21.91 21.45 21.91 8.09 21.91 8.09 21.91 8.09 25.89 8.09 25.89 8.09 25.89 8.09 25.89 21.45 25.89 21.45Z" fill="rgb(255,255,255)"/></svg>