<?xml version="1.0" encoding="utf-8"?>
<svg xmlns="http://www.w3.org/2000/svg"
	xmlns:xlink="http://www.w3.org/1999/xlink"
	width="47px" height="32px" viewBox="0 0 47 32">
<path fillRule="evenodd" d="M 0.01 15.55C 0.01 23.72 4.03 31.99 11.72 31.99 11.72 31.99 31.31 31.99 31.31 31.99 39.96 31.99 47 24.82 47 15.99 47 7.17 39.96-0.01 31.31-0.01 31.31-0.01 11.72-0.01 11.72-0.01 3.67-0.01 0.01 8.06 0.01 15.55ZM 2.96 15.55C 2.96 9.31 5.67 3.01 11.72 3.01 11.72 3.01 19.09 3.01 19.09 3.01 23.2 13.98 20.1 25.63 19.04 28.98 19.04 28.98 11.72 28.98 11.72 28.98 6.03 28.98 2.96 22.06 2.96 15.55ZM 44.04 15.99C 44.04 23.16 38.33 28.98 31.31 28.98 31.31 28.98 22.14 28.98 22.14 28.98 22.94 26.29 24.15 21.23 24.15 15.25 24.15 11.41 23.65 7.21 22.23 3.01 22.23 3.01 31.31 3.01 31.31 3.01 38.33 3.01 44.04 8.83 44.04 15.99ZM 17.09 17.31C 17.09 17.31 6.38 17.31 6.38 17.31 5.57 17.31 4.91 16.64 4.91 15.81 4.91 14.97 5.57 14.3 6.38 14.3 6.38 14.3 17.09 14.3 17.09 14.3 17.91 14.3 18.57 14.97 18.57 15.81 18.57 16.64 17.91 17.31 17.09 17.31Z" fill="rgb(255,255,255)" opacity="0.20"/></svg>