<?xml version="1.0" encoding="utf-8"?>
<svg xmlns="http://www.w3.org/2000/svg"
	xmlns:xlink="http://www.w3.org/1999/xlink"
	width="37px" height="37px" viewBox="0 0 37 37">
<path fillRule="evenodd" d="M 18.5-0C 8.28-0-0 8.29-0 18.51-0 28.73 8.28 37.01 18.5 37.01 28.71 37.01 36.99 28.73 36.99 18.51 36.99 8.28 28.71-0 18.5-0ZM 13.87 27.47C 13.87 27.47 9.25 27.47 9.25 27.47 9.25 27.47 9.25 11.28 9.25 11.28 9.25 11.28 13.87 11.28 13.87 11.28 13.87 11.28 13.87 27.47 13.87 27.47ZM 11.7 10.28C 10.51 10.28 9.54 9.31 9.54 8.11 9.54 6.92 10.51 5.94 11.7 5.94 12.9 5.95 13.87 6.92 13.87 8.11 13.87 9.31 12.9 10.28 11.7 10.28ZM 30.06 27.47C 30.06 27.47 25.43 27.47 25.43 27.47 25.43 27.47 25.43 17.46 25.43 17.46 25.43 16.29 25.1 15.46 23.66 15.46 21.27 15.46 20.81 17.46 20.81 17.46 20.81 17.46 20.81 27.47 20.81 27.47 20.81 27.47 16.18 27.47 16.18 27.47 16.18 27.47 16.18 11.28 16.18 11.28 16.18 11.28 20.81 11.28 20.81 11.28 20.81 11.28 20.81 12.82 20.81 12.82 21.47 12.32 23.12 11.28 25.43 11.28 26.93 11.28 30.06 12.18 30.06 17.6 30.06 17.6 30.06 27.47 30.06 27.47Z" fill="rgb(85,85,85)"/></svg>