<?xml version="1.0" encoding="utf-8"?>
<svg xmlns="http://www.w3.org/2000/svg"
	xmlns:xlink="http://www.w3.org/1999/xlink"
	width="34px" height="29px" viewBox="0 0 34 29">
<path fillRule="evenodd" d="M 34.01 15.71C 34.01 15.71 34.01 28.99 34.01 28.99 34.01 28.99 18.22 28.99 18.22 28.99 18.22 28.99 18.22 15.71 18.22 15.71 18.22 5.69 20.65 0.01 29.15 0.01 29.15 0.01 29.15 8.1 29.15 8.1 25.51 8.1 25.51 8.82 25.51 13.17 25.51 13.17 25.51 15.71 25.51 15.71 25.51 15.71 34.01 15.71 34.01 15.71ZM-0.01 15.71C-0.01 5.69 2.43 0.01 10.93 0.01 10.93 0.01 10.93 8.1 10.93 8.1 7.28 8.1 7.28 8.82 7.28 13.17 7.28 13.17 7.28 15.71 7.28 15.71 7.28 15.71 15.79 15.71 15.79 15.71 15.79 15.71 15.79 28.99 15.79 28.99 15.79 28.99-0.01 28.99-0.01 28.99-0.01 28.99-0.01 15.71-0.01 15.71Z" fill="rgb(255,255,255)"/></svg>