<?xml version="1.0" encoding="utf-8"?>
<svg xmlns="http://www.w3.org/2000/svg"
	xmlns:xlink="http://www.w3.org/1999/xlink"
	width="37px" height="37px" viewBox="0 0 37 37">
<path fillRule="evenodd" d="M 18.5-0C 8.28-0 0 8.28 0 18.5 0 28.72 8.28 37 18.5 37 28.72 37 37 28.72 37 18.5 37 8.28 28.72-0 18.5-0ZM 26.02 15.16C 26.03 15.31 26.03 15.47 26.03 15.63 26.03 20.44 22.37 25.99 15.67 25.99 13.61 25.99 11.7 25.39 10.08 24.36 10.37 24.39 10.66 24.41 10.95 24.41 12.66 24.41 14.23 23.83 15.48 22.85 13.88 22.82 12.54 21.77 12.07 20.32 12.3 20.36 12.52 20.38 12.76 20.38 13.09 20.38 13.41 20.34 13.72 20.25 12.05 19.92 10.8 18.45 10.8 16.68 10.8 16.67 10.8 16.65 10.8 16.64 11.29 16.91 11.85 17.07 12.45 17.09 11.47 16.44 10.83 15.32 10.83 14.06 10.83 13.39 11.01 12.77 11.32 12.23 13.12 14.43 15.8 15.88 18.83 16.03 18.77 15.77 18.73 15.49 18.73 15.2 18.73 13.19 20.37 11.56 22.38 11.56 23.43 11.56 24.37 12 25.04 12.71 25.87 12.55 26.65 12.24 27.35 11.83 27.08 12.68 26.5 13.39 25.75 13.84 26.49 13.75 27.19 13.56 27.84 13.27 27.35 14 26.74 14.64 26.02 15.16Z" fill="rgb(85,85,85)"/></svg>